<?xml version="1.0" encoding="iso-8859-1"?>
<!-- Generator: Adobe Illustrator 18.0.0, SVG Export Plug-In . SVG Version: 6.00 Build 0)  -->
<!DOCTYPE svg PUBLIC "-//W3C//DTD SVG 1.1//EN" "http://www.w3.org/Graphics/SVG/1.1/DTD/svg11.dtd">
<svg version="1.1" id="Capa_1" xmlns="http://www.w3.org/2000/svg" xmlns:xlink="http://www.w3.org/1999/xlink" x="0px" y="0px"
	 viewBox="0 0 426.983 426.983" style="enable-background:new 0 0 426.983 426.983;" xml:space="preserve">
<g>
	<g>
		<g id="XMLID_105_">
			<g>
				<polygon style="fill:#51B7A6;" points="390.505,334.731 390.505,426.731 364.415,421.901 364.415,339.561 				"/>
				<polygon style="fill:#88C9B3;" points="364.415,339.561 364.415,421.901 288.505,407.861 288.505,353.601 				"/>
				<polygon style="fill:#C65C05;" points="62.575,5.081 62.575,87.421 36.475,92.251 36.475,0.251 				"/>
				<polygon style="fill:#E77200;" points="138.475,19.121 138.475,73.381 62.575,87.421 62.575,5.081 				"/>
			</g>
			<g>
			</g>
		</g>
	</g>
	<path style="fill:#7C6655;" d="M288.506,388.233H78.288c-27.189,0-49.311-22.121-49.311-49.311s22.121-49.311,49.311-49.311
		h270.407c18.919,0,34.311-15.392,34.311-34.31c0-18.919-15.392-34.311-34.311-34.311H78.288c-27.189,0-49.311-22.121-49.311-49.311
		c0-27.189,22.121-49.31,49.311-49.31h270.407c18.919,0,34.311-15.392,34.311-34.311S367.614,53.75,348.695,53.75H138.477v-15
		h210.218c27.189,0,49.311,22.121,49.311,49.31c0,27.19-22.121,49.311-49.311,49.311H78.288c-18.919,0-34.311,15.392-34.311,34.31
		c0,18.919,15.392,34.311,34.311,34.311h270.407c27.189,0,49.311,22.121,49.311,49.311c0,27.189-22.121,49.31-49.311,49.31H78.288
		c-18.919,0-34.311,15.392-34.311,34.311s15.392,34.311,34.311,34.311h210.218V388.233z"/>
</g>
<g>
</g>
<g>
</g>
<g>
</g>
<g>
</g>
<g>
</g>
<g>
</g>
<g>
</g>
<g>
</g>
<g>
</g>
<g>
</g>
<g>
</g>
<g>
</g>
<g>
</g>
<g>
</g>
<g>
</g>
</svg>
